<svg width="26" height="25" viewBox="0 0 26 25" fill="none" xmlns="http://www.w3.org/2000/svg">
<rect width="25" height="25" rx="8.75" transform="matrix(1 0 0 -1 0.5 25)" fill="white"/>
<path d="M13.6629 19.4129C13.2968 19.779 12.7032 19.779 12.3371 19.4129L6.37087 13.4467C6.00476 13.0806 6.00476 12.487 6.37087 12.1209C6.73699 11.7548 7.33058 11.7548 7.6967 12.1209L13 17.4242L18.3033 12.1209C18.6694 11.7548 19.263 11.7548 19.6291 12.1209C19.9952 12.487 19.9952 13.0806 19.6291 13.4467L13.6629 19.4129ZM13.9375 7.5L13.9375 18.75L12.0625 18.75L12.0625 7.5L13.9375 7.5Z" fill="#1D54E4"/>
</svg>
